<svg width="20" height="20" viewBox="0 0 20 20" fill="none" xmlns="http://www.w3.org/2000/svg">
<g clip-path="url(#clip0_7_226)">
<path d="M14.22 -9.76585e-06H5.75001C2.57501 0.0109902 0.00501047 2.58499 1.04723e-05 5.75999V14.2C-0.00598953 17.383 2.56701 19.969 5.75001 19.98H14.2C17.387 19.986 19.974 17.407 19.98 14.22C19.98 14.217 19.98 14.213 19.98 14.21V5.75999C19.974 2.57199 17.388 -0.0100098 14.2 -0.0100098M18.15 14.37C18.156 16.48 16.45 18.194 14.34 18.2C14.333 18.2 14.327 18.2 14.32 18.2H5.67001C3.55501 18.2 1.84001 16.485 1.84001 14.37V5.75999C1.83401 3.64999 3.54001 1.93599 5.65001 1.92999C5.65301 1.92999 5.65701 1.92999 5.66001 1.92999H14.32C16.431 1.92999 18.144 3.63899 18.15 5.74999V14.37Z" fill="#ABABAB"/>
<path d="M9.99005 4.84009C7.12405 4.84009 4.80005 7.16409 4.80005 10.0301C4.80005 12.8961 7.12405 15.2201 9.99005 15.2201C12.852 15.2201 15.174 12.9021 15.18 10.0401C15.186 7.17409 12.866 4.84609 10 4.84009C9.99705 4.84009 9.99305 4.84009 9.99005 4.84009ZM9.99005 13.3901C8.13405 13.3791 6.63905 11.8661 6.65005 10.0101C6.66105 8.15409 8.17405 6.65909 10.03 6.67009C11.882 6.68109 13.375 8.18809 13.37 10.0401C13.354 11.8951 11.845 13.3901 9.99005 13.3901Z" fill="#ABABAB"/>
<path d="M15.36 3.44995C14.692 3.44995 14.15 3.99195 14.15 4.65995C14.15 5.32795 14.692 5.86995 15.36 5.86995C16.028 5.86995 16.57 5.32795 16.57 4.65995C16.57 4.65695 16.57 4.65295 16.57 4.64995C16.576 3.99295 16.047 3.45495 15.39 3.44995C15.38 3.44995 15.37 3.44995 15.36 3.44995Z" fill="#ABABAB"/>
</g>
<defs>
<clipPath id="clip0_7_226">
<rect width="20" height="20" fill="white"/>
</clipPath>
</defs>
</svg>
